<svg xmlns="http://www.w3.org/2000/svg" width="224" height="43" viewBox="0 0 224 43"><g><g><g><path d="M124.983 21.097v-2.279c0-1.415.503-2.863 1.404-3.948.18-.216 1.415-1.541 3.333-1.737 1.327-.14 3.35-.154 5.004.85l.237-.56.442-1.008L136.63 9.7c-.055-.024-.13-.058-.243-.111-3.41-1.555-6.485-1.442-8.6-1.009a10.4 10.4 0 0 0-2.6.825c-.205.089-.317.151-.317.151-3.192 1.652-5.271 4.926-5.271 8.947v8.144c.004.442.027.874.082 1.285.604 4.732 4.387 7.165 9.209 7.165 3 0 5.943-.622 7.74-1.39V21.402h-7.109v4.16h2.388v4.744c-.703.201-1.503.305-2.424.305-2.837 0-4.503-1.368-4.503-4.187v-5.326"/></g><g><path d="M86.86 16.35c3.447 0 6.035 2.604 6.035 6.882v4.353c0 5.03-2.974 7.563-7.466 7.563-1.27 0-2.732-.264-3.806-.581v8.402H76.56V16.587h4.432l.271 1.754c1.505-1.15 3.134-1.991 5.597-1.991zm.833 7.836c0-2.129-.67-3.565-2.733-3.565-1.254 0-2.35.52-3.208 1.2v8.624c.763.284 1.774.546 2.778.546 2.481 0 3.163-1.742 3.163-3.836z"/></g><g><path d="M51.898 29.67L48.87 16.875h-4.292l-3.03 12.793-2.892-13.079H33.33l4.713 18.189h5.979l2.693-10.961 2.739 10.961h5.97l4.714-18.189h-5.329l-2.911 13.08"/></g><g><path d="M106.005 16.21c4.55 0 7.645 2.782 7.645 7.788 0 1.29-.081 2.36-.081 3.012h-10.372v.694c0 2.091 1.377 3.239 4.151 3.239 2.593 0 4.602-.436 5.547-.645l.408 3.937c-.942.281-3.299.905-6.719.905-4.977 0-8.424-2.634-8.424-7.614V23.97c0-4.978 3.162-7.76 7.845-7.76zm3.41 7.377c0-2.173-.872-3.41-2.81-3.41-1.87 0-2.807 1.14-2.807 3.262v.755h5.617z"/></g><g><path d="M153.484 29.115c-1.19.86-2.522 1.333-3.543 1.333-1.426 0-2.04-.779-2.04-2.187V16.59H142.7v13.28c0 3.46 1.865 5.274 5.11 5.274 2.25 0 4.437-1.038 6.158-2.308l.275 1.943h4.431V16.59h-5.19v12.525"/></g><g><path d="M164.71 34.779h5.2V16.59h-5.2z"/></g><g><path d="M186.935 16.806V8.4h5.069v26.383h-4.427l-.272-1.752c-1.508 1.149-3.14 2.008-5.606 2.008-3.437 0-6.029-2.606-6.029-6.883v-4.374c0-5.02 2.977-7.564 7.462-7.564 1.27 0 2.735.274 3.803.588zm-.122 4.137a7.547 7.547 0 0 0-2.772-.558c-2.492 0-3.167 1.726-3.167 3.826v2.966c0 2.142.665 3.59 2.73 3.59 1.251 0 2.356-.53 3.209-1.203z"/></g><g><path d="M205.105 16.21c4.543 0 7.646 2.782 7.646 7.788 0 1.29-.078 2.36-.078 3.012h-10.388v.694c0 2.091 1.393 3.239 4.148 3.239 2.604 0 4.607-.436 5.56-.645l.4 3.937c-.938.281-3.289.905-6.712.905-4.98 0-8.421-2.634-8.421-7.614V23.97c0-4.978 3.155-7.76 7.845-7.76zm2.808 7.377c0-2.173-.87-3.41-2.808-3.41-1.864 0-2.82 1.14-2.82 3.262v.755h5.628z"/></g><g><path d="M220.804 29.72c-1.833 0-2.844.888-2.844 2.726 0 1.794 1.033 2.699 2.844 2.699 1.815 0 2.826-.905 2.826-2.699 0-1.838-1.011-2.726-2.826-2.726"/></g><g><path d="M67.833 8.3c-1.8 0-2.803.87-2.803 2.7 0 1.805 1.016 2.698 2.803 2.698 1.83 0 2.842-.893 2.842-2.699 0-1.83-1.011-2.699-2.842-2.699"/></g><g><path d="M65.3 34.779h5.213V16.59H65.3z"/></g><g><path d="M167.298 8.3c-1.807 0-2.808.87-2.808 2.7 0 1.805 1.016 2.698 2.808 2.698 1.83 0 2.845-.893 2.845-2.699 0-1.83-1.016-2.699-2.845-2.699"/></g><g><path d="M27.137 21.48c.768.581 1.403 1.3 1.908 2.158.502.858.753 1.928.753 3.209 0 1.477-.267 2.753-.807 3.828a7.646 7.646 0 0 1-2.179 2.667 9.239 9.239 0 0 1-3.127 1.557 13.01 13.01 0 0 1-3.631.51c-1.826 0-3.585-.32-5.289-.96-1.47-.553-2.731-1.312-3.77-2.276L.903 42.608.19 41.9l17.627-18.222c-.65-.23-1.293-.49-1.92-.783a7.991 7.991 0 0 1-2.084-1.399 6.436 6.436 0 0 1-1.478-2.066c-.368-.81-.556-1.794-.556-2.956 0-1.426.29-2.647.866-3.662a7.53 7.53 0 0 1 2.265-2.505 9.633 9.633 0 0 1 3.165-1.43 14.091 14.091 0 0 1 3.561-.455c1.439 0 2.908.265 4.404.798a11.378 11.378 0 0 1 3.691 2.142L40.244.49l.713.703-17.772 18.38c.458.162.924.331 1.398.509.936.352 1.786.818 2.554 1.399zm-9.171-5.364c0 .435.09.8.27 1.092.18.29.443.542.792.76a7 7 0 0 0 1.242.602c.477.182 1.018.368 1.617.562.083.027.165.055.25.087l3.653-3.78a5.673 5.673 0 0 0-1.799-1.302c-.854-.4-1.672-.602-2.464-.602-.408 0-.823.04-1.242.11a3.158 3.158 0 0 0-1.132.42 2.77 2.77 0 0 0-.847.8c-.227.324-.34.744-.34 1.25zm5.61 11.386c0-.485-.118-.896-.36-1.233-.24-.339-.58-.647-1.023-.924-.447-.28-.995-.533-1.653-.762a104.75 104.75 0 0 0-1.666-.557l-3.894 4.026c.553.568 1.234 1.055 2.033 1.462 1.019.521 2.034.782 3.04.782.455 0 .898-.051 1.33-.147a3.33 3.33 0 0 0 1.131-.47c.325-.22.584-.51.776-.873.192-.364.286-.798.286-1.304z"/></g></g></g></svg>